<svg xmlns="http://www.w3.org/2000/svg" width="578" height="323">
    <path d="M0 0 578 0 578 323 0 323 Z"/>
    <path fill="red" d="M4 4 574 4 574 319 4 319 Z"/>

    <rect x="4" y="4" width="30" height="45" style="fill:rgb(255,188,119);stroke-width:2.5;stroke:rgb(0,0,0)" />
    <text x="6" y="37" fill="black" font-size="36">Q</text>
    <rect x="34" y="4" width="30" height="45" style="fill:rgb(255,206,156);stroke-width:2.5;stroke:rgb(0,0,0)" />
    <rect x="64" y="4" width="30" height="45" style="fill:rgb(255,188,119);stroke-width:2.5;stroke:rgb(0,0,0)" />
    <text x="66" y="39" fill="black" font-size="36">U</text>
    <rect x="94" y="4" width="30" height="45" style="fill:rgb(255,206,156);stroke-width:2.5;stroke:rgb(0,0,0)" />
    <rect x="124" y="4" width="30" height="45" style="fill:rgb(255,188,119);stroke-width:2.5;stroke:rgb(0,0,0)" />
    <text x="126" y="39" fill="black" font-size="36">A</text>
    <rect x="154" y="4" width="30" height="45" style="fill:rgb(255,206,156);stroke-width:2.5;stroke:rgb(0,0,0)" />
    <rect x="184" y="4" width="30" height="45" style="fill:rgb(255,188,119);stroke-width:2.5;stroke:rgb(0,0,0)" />
    <text x="187" y="39" fill="black" font-size="36">R</text>
    <rect x="214" y="4" width="30" height="45" style="fill:rgb(255,206,156);stroke-width:2.5;stroke:rgb(0,0,0)" />
    <rect x="244" y="4" width="30" height="45" style="fill:rgb(255,188,119);stroke-width:2.5;stroke:rgb(0,0,0)" />
    <text x="246" y="39" fill="black" font-size="36">A</text>
    <rect x="274" y="4" width="30" height="45" style="fill:rgb(255,206,156);stroke-width:2.5;stroke:rgb(0,0,0)" />
    <rect x="304" y="4" width="30" height="45" style="fill:rgb(255,188,119);stroke-width:2.5;stroke:rgb(0,0,0)" />
    <text x="306" y="39" fill="black" font-size="36">N</text>
    <rect x="334" y="4" width="30" height="45" style="fill:rgb(255,206,156);stroke-width:2.5;stroke:rgb(0,0,0)" />
    <rect x="364" y="4" width="30" height="45" style="fill:rgb(255,188,119);stroke-width:2.5;stroke:rgb(0,0,0)" />
    <text x="368" y="39" fill="black" font-size="36">T</text>
    <rect x="394" y="4" width="30" height="45" style="fill:rgb(255,206,156);stroke-width:2.5;stroke:rgb(0,0,0)" />
    <rect x="424" y="4" width="30" height="45" style="fill:rgb(255,188,119);stroke-width:2.5;stroke:rgb(0,0,0)" />
    <text x="433" y="39" fill="black" font-size="36">I</text>
    <rect x="454" y="4" width="30" height="45" style="fill:rgb(255,206,156);stroke-width:2.5;stroke:rgb(0,0,0)" />
    <rect x="484" y="4" width="30" height="45" style="fill:rgb(255,188,119);stroke-width:2.5;stroke:rgb(0,0,0)" />
    <text x="486" y="39" fill="black" font-size="36">N</text>
    <rect x="514" y="4" width="30" height="45" style="fill:rgb(255,206,156);stroke-width:2.5;stroke:rgb(0,0,0)" />
    <rect x="544" y="4" width="30" height="45" style="fill:rgb(255,188,119);stroke-width:2.5;stroke:rgb(0,0,0)" />
    <text x="547" y="39" fill="black" font-size="36">E</text>
    
    <rect x="4" y="49" width="30" height="45" style="fill:rgb(255,206,156);stroke-width:2.5;stroke:rgb(0,0,0)" />
    <rect x="34" y="49" width="30" height="45" style="fill:rgb(255,188,119);stroke-width:2.5;stroke:rgb(0,0,0)" />
    <rect x="64" y="49" width="30" height="45" style="fill:rgb(255,206,156);stroke-width:2.5;stroke:rgb(0,0,0)" />
    <rect x="94" y="49" width="30" height="45" style="fill:rgb(255,188,119);stroke-width:2.5;stroke:rgb(0,0,0)" />
    <rect x="124" y="49" width="30" height="45" style="fill:rgb(255,206,156);stroke-width:2.5;stroke:rgb(0,0,0)" />
    <rect x="154" y="49" width="30" height="45" style="fill:rgb(255,188,119);stroke-width:2.5;stroke:rgb(0,0,0)" />
    <rect x="184" y="49" width="30" height="45" style="fill:rgb(255,206,156);stroke-width:2.5;stroke:rgb(0,0,0)" />
    <rect x="214" y="49" width="30" height="45" style="fill:rgb(255,188,119);stroke-width:2.5;stroke:rgb(0,0,0)" />
    <rect x="244" y="49" width="30" height="45" style="fill:rgb(255,206,156);stroke-width:2.5;stroke:rgb(0,0,0)" />
    <rect x="274" y="49" width="30" height="45" style="fill:rgb(255,188,119);stroke-width:2.5;stroke:rgb(0,0,0)" />
    <rect x="304" y="49" width="30" height="45" style="fill:rgb(255,206,156);stroke-width:2.5;stroke:rgb(0,0,0)" />
    <rect x="334" y="49" width="30" height="45" style="fill:rgb(255,188,119);stroke-width:2.5;stroke:rgb(0,0,0)" />
    <rect x="364" y="49" width="30" height="45" style="fill:rgb(255,206,156);stroke-width:2.5;stroke:rgb(0,0,0)" />
    <rect x="394" y="49" width="30" height="45" style="fill:rgb(255,188,119);stroke-width:2.5;stroke:rgb(0,0,0)" />
    <rect x="424" y="49" width="30" height="45" style="fill:rgb(255,206,156);stroke-width:2.5;stroke:rgb(0,0,0)" />
    <rect x="454" y="49" width="30" height="45" style="fill:rgb(255,188,119);stroke-width:2.5;stroke:rgb(0,0,0)" />
    <rect x="484" y="49" width="30" height="45" style="fill:rgb(255,206,156);stroke-width:2.5;stroke:rgb(0,0,0)" />
    <rect x="514" y="49" width="30" height="45" style="fill:rgb(255,188,119);stroke-width:2.5;stroke:rgb(0,0,0)" />
    <rect x="544" y="49" width="30" height="45" style="fill:rgb(255,206,156);stroke-width:2.5;stroke:rgb(0,0,0)" />
    
    <rect x="4" y="94" width="30" height="45" style="fill:rgb(115,55,0);stroke-width:2.5;stroke:rgb(0,0,0)" />
    <rect x="34" y="94" width="30" height="45" style="fill:rgb(150,75,0);stroke-width:2.5;stroke:rgb(0,0,0)" />
    <rect x="64" y="94" width="30" height="45" style="fill:rgb(115,55,0);stroke-width:2.5;stroke:rgb(0,0,0)" />
    <rect x="94" y="94" width="30" height="45" style="fill:rgb(255,206,156);stroke-width:2.5;stroke:rgb(0,0,0)" />
    <rect x="124" y="94" width="30" height="45" style="fill:rgb(115,55,0);stroke-width:2.5;stroke:rgb(0,0,0)" />
    <rect x="154" y="94" width="30" height="45" style="fill:rgb(255,206,156);stroke-width:2.5;stroke:rgb(0,0,0)" />
    <rect x="184" y="94" width="30" height="45" style="fill:rgb(115,55,0);stroke-width:2.5;stroke:rgb(0,0,0)" />
    <rect x="214" y="94" width="30" height="45" style="fill:rgb(255,206,156);stroke-width:2.5;stroke:rgb(0,0,0)" />
    <rect x="244" y="94" width="30" height="45" style="fill:rgb(115,55,0);stroke-width:2.5;stroke:rgb(0,0,0)" />
    <rect x="274" y="94" width="30" height="45" style="fill:rgb(150,75,0);stroke-width:2.5;stroke:rgb(0,0,0)" />
    <rect x="304" y="94" width="30" height="45" style="fill:rgb(115,55,0);stroke-width:2.5;stroke:rgb(0,0,0)" />
    <rect x="334" y="94" width="30" height="45" style="fill:rgb(255,206,156);stroke-width:2.5;stroke:rgb(0,0,0)" />
    <rect x="364" y="94" width="30" height="45" style="fill:rgb(115,55,0);stroke-width:2.5;stroke:rgb(0,0,0)" />
    <rect x="394" y="94" width="30" height="45" style="fill:rgb(150,75,0);stroke-width:2.5;stroke:rgb(0,0,0)" />
    <rect x="424" y="94" width="30" height="45" style="fill:rgb(115,55,0);stroke-width:2.5;stroke:rgb(0,0,0)" />
    <rect x="454" y="94" width="30" height="45" style="fill:rgb(255,206,156);stroke-width:2.5;stroke:rgb(0,0,0)" />
    <rect x="484" y="94" width="30" height="45" style="fill:rgb(115,55,0);stroke-width:2.5;stroke:rgb(0,0,0)" />
    <rect x="514" y="94" width="30" height="45" style="fill:rgb(150,75,0);stroke-width:2.5;stroke:rgb(0,0,0)" />
    <rect x="544" y="94" width="30" height="45" style="fill:rgb(115,55,0);stroke-width:2.5;stroke:rgb(0,0,0)" />
    
    <rect x="4" y="139" width="30" height="45" style="fill:rgb(150,75,0);stroke-width:2.5;stroke:rgb(0,0,0)" />
    <rect x="34" y="139" width="30" height="45" style="fill:rgb(255,188,119);stroke-width:2.5;stroke:rgb(0,0,0)" />
    <rect x="64" y="139" width="30" height="45" style="fill:rgb(255,206,156);stroke-width:2.5;stroke:rgb(0,0,0)" />
    <rect x="94" y="139" width="30" height="45" style="fill:rgb(255,188,119);stroke-width:2.5;stroke:rgb(0,0,0)" />
    <rect x="124" y="139" width="30" height="45" style="fill:rgb(150,75,0);stroke-width:2.5;stroke:rgb(0,0,0)" />
    <rect x="154" y="139" width="30" height="45" style="fill:rgb(255,188,119);stroke-width:2.5;stroke:rgb(0,0,0)" />
    <rect x="184" y="139" width="30" height="45" style="fill:rgb(150,75,0);stroke-width:2.5;stroke:rgb(0,0,0)" />
    <rect x="214" y="139" width="30" height="45" style="fill:rgb(255,188,119);stroke-width:2.5;stroke:rgb(0,0,0)" />
    <rect x="244" y="139" width="30" height="45" style="fill:rgb(150,75,0);stroke-width:2.5;stroke:rgb(0,0,0)" />
    <rect x="274" y="139" width="30" height="45" style="fill:rgb(255,188,119);stroke-width:2.5;stroke:rgb(0,0,0)" />
    <rect x="304" y="139" width="30" height="45" style="fill:rgb(255,206,156);stroke-width:2.5;stroke:rgb(0,0,0)" />
    <rect x="334" y="139" width="30" height="45" style="fill:rgb(255,188,119);stroke-width:2.5;stroke:rgb(0,0,0)" />
    <rect x="364" y="139" width="30" height="45" style="fill:rgb(150,75,0);stroke-width:2.5;stroke:rgb(0,0,0)" />
    <rect x="394" y="139" width="30" height="45" style="fill:rgb(255,188,119);stroke-width:2.5;stroke:rgb(0,0,0)" />
    <rect x="424" y="139" width="30" height="45" style="fill:rgb(255,206,156);stroke-width:2.5;stroke:rgb(0,0,0)" />
    <rect x="454" y="139" width="30" height="45" style="fill:rgb(255,188,119);stroke-width:2.5;stroke:rgb(0,0,0)" />
    <rect x="484" y="139" width="30" height="45" style="fill:rgb(150,75,0);stroke-width:2.5;stroke:rgb(0,0,0)" />
    <rect x="514" y="139" width="30" height="45" style="fill:rgb(255,188,119);stroke-width:2.5;stroke:rgb(0,0,0)" />
    <rect x="544" y="139" width="30" height="45" style="fill:rgb(255,206,156);stroke-width:2.5;stroke:rgb(0,0,0)" />
    
    <rect x="4" y="184" width="30" height="45" style="fill:rgb(115,55,0);stroke-width:2.5;stroke:rgb(0,0,0)" />
    <rect x="34" y="184" width="30" height="45" style="fill:rgb(255,206,156);stroke-width:2.5;stroke:rgb(0,0,0)" />
    <rect x="64" y="184" width="30" height="45" style="fill:rgb(255,188,119);stroke-width:2.5;stroke:rgb(0,0,0)" />
    <rect x="94" y="184" width="30" height="45" style="fill:rgb(255,206,156);stroke-width:2.5;stroke:rgb(0,0,0)" />
    <rect x="124" y="184" width="30" height="45" style="fill:rgb(115,55,0);stroke-width:2.5;stroke:rgb(0,0,0)" />
    <rect x="154" y="184" width="30" height="45" style="fill:rgb(150,75,0);stroke-width:2.5;stroke:rgb(0,0,0)" />
    <rect x="184" y="184" width="30" height="45" style="fill:rgb(115,55,0);stroke-width:2.5;stroke:rgb(0,0,0)" />
    <rect x="214" y="184" width="30" height="45" style="fill:rgb(255,206,156);stroke-width:2.5;stroke:rgb(0,0,0)" />
    <rect x="244" y="184" width="30" height="45" style="fill:rgb(115,55,0);stroke-width:2.5;stroke:rgb(0,0,0)" />
    <rect x="274" y="184" width="30" height="45" style="fill:rgb(150,75,0);stroke-width:2.5;stroke:rgb(0,0,0)" />
    <rect x="304" y="184" width="30" height="45" style="fill:rgb(115,55,0);stroke-width:2.5;stroke:rgb(0,0,0)" />
    <rect x="334" y="184" width="30" height="45" style="fill:rgb(255,206,156);stroke-width:2.5;stroke:rgb(0,0,0)" />
    <rect x="364" y="184" width="30" height="45" style="fill:rgb(115,55,0);stroke-width:2.5;stroke:rgb(0,0,0)" />
    <rect x="394" y="184" width="30" height="45" style="fill:rgb(150,75,0);stroke-width:2.5;stroke:rgb(0,0,0)" />
    <rect x="424" y="184" width="30" height="45" style="fill:rgb(115,55,0);stroke-width:2.5;stroke:rgb(0,0,0)" />
    <rect x="454" y="184" width="30" height="45" style="fill:rgb(255,206,156);stroke-width:2.5;stroke:rgb(0,0,0)" />
    <rect x="484" y="184" width="30" height="45" style="fill:rgb(115,55,0);stroke-width:2.5;stroke:rgb(0,0,0)" />
    <rect x="514" y="184" width="30" height="45" style="fill:rgb(150,75,0);stroke-width:2.5;stroke:rgb(0,0,0)" />
    <rect x="544" y="184" width="30" height="45" style="fill:rgb(115,55,0);stroke-width:2.5;stroke:rgb(0,0,0)" />
    
    <rect x="4" y="229" width="30" height="45" style="fill:rgb(150,75,0);stroke-width:2.5;stroke:rgb(0,0,0)" />
    <rect x="34" y="229" width="30" height="45" style="fill:rgb(255,188,119);stroke-width:2.5;stroke:rgb(0,0,0)" />
    <rect x="64" y="229" width="30" height="45" style="fill:rgb(255,206,156);stroke-width:2.5;stroke:rgb(0,0,0)" />
    <rect x="94" y="229" width="30" height="45" style="fill:rgb(255,188,119);stroke-width:2.5;stroke:rgb(0,0,0)" />
    <rect x="124" y="229" width="30" height="45" style="fill:rgb(150,75,0);stroke-width:2.5;stroke:rgb(0,0,0)" />
    <rect x="154" y="229" width="30" height="45" style="fill:rgb(255,188,119);stroke-width:2.5;stroke:rgb(0,0,0)" />
    <rect x="184" y="229" width="30" height="45" style="fill:rgb(150,75,0);stroke-width:2.5;stroke:rgb(0,0,0)" />
    <rect x="214" y="229" width="30" height="45" style="fill:rgb(255,188,119);stroke-width:2.5;stroke:rgb(0,0,0)" />
    <rect x="244" y="229" width="30" height="45" style="fill:rgb(150,75,0);stroke-width:2.5;stroke:rgb(0,0,0)" />
    <rect x="274" y="229" width="30" height="45" style="fill:rgb(255,188,119);stroke-width:2.5;stroke:rgb(0,0,0)" />
    <rect x="304" y="229" width="30" height="45" style="fill:rgb(255,206,156);stroke-width:2.5;stroke:rgb(0,0,0)" />
    <rect x="334" y="229" width="30" height="45" style="fill:rgb(255,188,119);stroke-width:2.5;stroke:rgb(0,0,0)" />
    <rect x="364" y="229" width="30" height="45" style="fill:rgb(255,206,156);stroke-width:2.5;stroke:rgb(0,0,0)" />
    <rect x="394" y="229" width="30" height="45" style="fill:rgb(255,188,119);stroke-width:2.5;stroke:rgb(0,0,0)" />
    <rect x="424" y="229" width="30" height="45" style="fill:rgb(150,75,0);stroke-width:2.5;stroke:rgb(0,0,0)" />
    <rect x="454" y="229" width="30" height="45" style="fill:rgb(255,188,119);stroke-width:2.5;stroke:rgb(0,0,0)" />
    <rect x="484" y="229" width="30" height="45" style="fill:rgb(255,206,156);stroke-width:2.5;stroke:rgb(0,0,0)" />
    <rect x="514" y="229" width="30" height="45" style="fill:rgb(255,188,119);stroke-width:2.5;stroke:rgb(0,0,0)" />
    <rect x="544" y="229" width="30" height="45" style="fill:rgb(150,75,0);stroke-width:2.5;stroke:rgb(0,0,0)" />
    
    <rect x="4" y="274" width="30" height="45" style="fill:rgb(115,55,0);stroke-width:2.5;stroke:rgb(0,0,0)" />
    <rect x="34" y="274" width="30" height="45" style="fill:rgb(150,75,0);stroke-width:2.5;stroke:rgb(0,0,0)" />
    <rect x="64" y="274" width="30" height="45" style="fill:rgb(115,55,0);stroke-width:2.5;stroke:rgb(0,0,0)" />
    <rect x="94" y="274" width="30" height="45" style="fill:rgb(255,206,156);stroke-width:2.5;stroke:rgb(0,0,0)" />
    <rect x="124" y="274" width="30" height="45" style="fill:rgb(115,55,0);stroke-width:2.5;stroke:rgb(0,0,0)" />
    <rect x="154" y="274" width="30" height="45" style="fill:rgb(255,206,156);stroke-width:2.5;stroke:rgb(0,0,0)" />
    <rect x="184" y="274" width="30" height="45" style="fill:rgb(115,55,0);stroke-width:2.5;stroke:rgb(0,0,0)" />
    <rect x="214" y="274" width="30" height="45" style="fill:rgb(255,206,156);stroke-width:2.5;stroke:rgb(0,0,0)" />
    <rect x="244" y="274" width="30" height="45" style="fill:rgb(115,55,0);stroke-width:2.5;stroke:rgb(0,0,0)" />
    <rect x="274" y="274" width="30" height="45" style="fill:rgb(150,75,0);stroke-width:2.5;stroke:rgb(0,0,0)" />
    <rect x="304" y="274" width="30" height="45" style="fill:rgb(115,55,0);stroke-width:2.5;stroke:rgb(0,0,0)" />
    <rect x="334" y="274" width="30" height="45" style="fill:rgb(255,206,156);stroke-width:2.5;stroke:rgb(0,0,0)" />
    <rect x="364" y="274" width="30" height="45" style="fill:rgb(115,55,0);stroke-width:2.5;stroke:rgb(0,0,0)" />
    <rect x="394" y="274" width="30" height="45" style="fill:rgb(150,75,0);stroke-width:2.5;stroke:rgb(0,0,0)" />
    <rect x="424" y="274" width="30" height="45" style="fill:rgb(115,55,0);stroke-width:2.5;stroke:rgb(0,0,0)" />
    <rect x="454" y="274" width="30" height="45" style="fill:rgb(255,206,156);stroke-width:2.5;stroke:rgb(0,0,0)" />
    <rect x="484" y="274" width="30" height="45" style="fill:rgb(115,55,0);stroke-width:2.5;stroke:rgb(0,0,0)" />
    <rect x="514" y="274" width="30" height="45" style="fill:rgb(150,75,0);stroke-width:2.5;stroke:rgb(0,0,0)" />
    <rect x="544" y="274" width="30" height="45" style="fill:rgb(115,55,0);stroke-width:2.5;stroke:rgb(0,0,0)" />

    <line x1="4" y1="49" x2="574" y2="49" style="stroke:black;stroke-width:4" />

    <polyline points="4,94 94,94 94,139 34,139 34,274 94,274 94,319" style="fill:none;stroke:black;stroke-width:4" />
    <polyline points="124,319 124,94 154,94 154,184 184,184 184,94 214,94 214,319" style="fill:none;stroke:black;stroke-width:4" />
    <polyline points="154,319 154,229 184,229 184,319" style="fill:none;stroke:black;stroke-width:4" />
    <polyline points="244,319 244,94 334,94 334,139 274,139 274,184 334,184 334,229 274,229 274,274 334,274 334,319" style="fill:none;stroke:black;stroke-width:4" />
    <polyline points="364,319 364,274 424,274 424,229 364,229 364,94 454,94 454,139 394,139 394,184 454,184 454,319" style="fill:none;stroke:black;stroke-width:4" />
    <polyline points="484,319 484,274 544,274 544,229 484,229 484,94 574,94" style="fill:none;stroke:black;stroke-width:4" />
    <polyline points="574,139 514,139 514,184 574,184" style="fill:none;stroke:black;stroke-width:4" />

</svg>